<svg width="116" height="260" viewBox="0 0 116 260" fill="none" xmlns="http://www.w3.org/2000/svg">
<path d="M72.1108 89.8275C80.5696 91.1085 88.8876 86.2414 91.1305 81.5444C96.8978 82.0782 110.432 79.5961 106.075 64.4803C117.289 56.474 118.891 50.1112 106.075 35.0593C109.599 26.0923 114.751 13.9713 95.2061 10.4486C93.6041 -3.64252 77.5063 -3.32226 59.8839 10.4486C43.5431 10.1283 32.3165 -5.88428 21.4227 16.2131C11.8105 20.6966 -2.80995 28.4965 3.27778 45.4698C-5.37321 58.6001 4.25633 75.5526 18.6747 77.1539C19.9563 87.7222 32.8627 89.6523 48.5627 84.8486C51.1259 94.7764 64.1007 97.8338 72.1108 89.8275Z" fill="#F8AFD4"/>
<path d="M50.8188 164.843L52.2835 92.7827C49.4518 86.1429 42.441 75.2069 37.0511 69.3483C33.5975 65.5944 31.2424 63.4039 29.8161 62.4687L28.2632 62.025C28.5087 61.8145 29.0164 61.9443 29.8161 62.4687L34.4147 63.7826L28.2632 50.6007C35.8794 63.5873 51.6976 88.9746 54.041 86.6311C56.3845 84.2877 54.5972 49.429 47.8895 32.732C49.3542 34.9778 52.2835 39.8795 52.2835 41.5199C52.2835 43.5704 55.7986 28.0451 59.8996 25.1158C56.6188 36.5987 53.5528 43.3751 54.041 45.0351L59.8996 91.318C63.8054 84.8735 72.437 64.1927 73.3744 57.6311C73.3744 66.5361 70.4451 71.6917 70.4451 72.5705L82.4552 50.6007L69.2734 78.4291L59.8996 96.5908V164.843H50.8188Z" fill="#4B3B3B"/>
<circle cx="31.2314" cy="39.4986" r="2.75571" fill="#FFCDF2"/>
<circle cx="47.7657" cy="22.0457" r="2.75571" fill="#FFCDF2"/>
<circle cx="74.4043" cy="27.5571" r="2.75571" fill="#FFCDF2"/>
<circle cx="74.4043" cy="44.0914" r="2.75571" fill="#FFCDF2"/>
<circle cx="91.8572" cy="33.0686" r="2.75571" fill="#FFCDF2"/>
<circle cx="14.6972" cy="56.0329" r="2.75571" fill="#FFCDF2"/>
<circle cx="17.4529" cy="30.3128" r="2.75571" fill="#FFCDF2"/>
<circle cx="94.6129" cy="61.5443" r="2.75571" fill="#FFCDF2"/>
<circle cx="45.01" cy="61.5443" r="2.75571" fill="#FFCDF2"/>
<circle cx="63.3814" cy="64.3" r="2.75571" fill="#FFCDF2"/>
<g opacity="0.15">
<path d="M72.1108 169.629C80.5696 168.348 88.8876 173.215 91.1305 177.912C96.8978 177.378 110.432 179.86 106.075 194.976C117.289 202.982 118.891 209.345 106.075 224.397C109.599 233.364 114.751 245.485 95.2061 249.008C93.6041 263.099 77.5063 262.779 59.8839 249.008C43.5431 249.328 32.3165 265.341 21.4227 243.243C11.8105 238.76 -2.80995 230.96 3.27778 213.986C-5.37321 200.856 4.25633 183.904 18.6747 182.302C19.9563 171.734 32.8627 169.804 48.5627 174.608C51.1259 164.68 64.1007 161.623 72.1108 169.629Z" fill="#F8AFD4"/>
<path d="M50.8188 94.6128L52.2835 166.674C49.4518 173.313 42.441 184.249 37.0511 190.108C33.5975 193.862 31.2424 196.052 29.8161 196.988L28.2632 197.431C28.5087 197.642 29.0164 197.512 29.8161 196.988L34.4147 195.674L28.2632 208.856C35.8794 195.869 51.6976 170.482 54.041 172.825C56.3845 175.169 54.5972 210.027 47.8895 226.724C49.3542 224.479 52.2835 219.577 52.2835 217.936C52.2835 215.886 55.7986 231.411 59.8996 234.34C56.6188 222.858 53.5528 216.081 54.041 214.421L59.8996 168.138C63.8054 174.583 72.437 195.264 73.3744 201.825C73.3744 192.92 70.4451 187.765 70.4451 186.886L82.4552 208.856L69.2734 181.027L59.8996 162.866V94.6128H50.8188Z" fill="#4B3B3B"/>
<circle cx="2.75571" cy="2.75571" r="2.75571" transform="matrix(1 0 0 -1 28.4757 222.713)" fill="#FFCDF2"/>
<circle cx="2.75571" cy="2.75571" r="2.75571" transform="matrix(1 0 0 -1 45.01 240.166)" fill="#FFCDF2"/>
<circle cx="2.75571" cy="2.75571" r="2.75571" transform="matrix(1 0 0 -1 71.6486 234.655)" fill="#FFCDF2"/>
<circle cx="2.75571" cy="2.75571" r="2.75571" transform="matrix(1 0 0 -1 71.6486 218.121)" fill="#FFCDF2"/>
<circle cx="2.75571" cy="2.75571" r="2.75571" transform="matrix(1 0 0 -1 89.1014 229.143)" fill="#FFCDF2"/>
<circle cx="2.75571" cy="2.75571" r="2.75571" transform="matrix(1 0 0 -1 11.9414 206.179)" fill="#FFCDF2"/>
<circle cx="2.75571" cy="2.75571" r="2.75571" transform="matrix(1 0 0 -1 14.6971 231.899)" fill="#FFCDF2"/>
<circle cx="2.75571" cy="2.75571" r="2.75571" transform="matrix(1 0 0 -1 91.8571 200.668)" fill="#FFCDF2"/>
<circle cx="2.75571" cy="2.75571" r="2.75571" transform="matrix(1 0 0 -1 42.2543 200.668)" fill="#FFCDF2"/>
<circle cx="2.75571" cy="2.75571" r="2.75571" transform="matrix(1 0 0 -1 60.6257 197.912)" fill="#FFCDF2"/>
</g>
</svg>
