<svg width="116" height="260" viewBox="0 0 116 260" fill="none" xmlns="http://www.w3.org/2000/svg">
<path d="M72.1108 90.1734C80.5696 91.4544 88.8876 86.5873 91.1305 81.8903C96.8978 82.4241 110.432 79.942 106.075 64.8261C117.289 56.8198 118.891 50.4571 106.075 35.4052C109.599 26.4382 114.751 14.3172 95.2061 10.7944C93.6041 -3.29663 77.5063 -2.97638 59.8839 10.7944C43.5431 10.4742 32.3165 -5.53839 21.4227 16.559C11.8105 21.0425 -2.80995 28.8424 3.27778 45.8157C-5.37321 58.946 4.25633 75.8985 18.6747 77.4997C19.9563 88.068 32.8627 89.9982 48.5627 85.1945C51.1259 95.1222 64.1007 98.1797 72.1108 90.1734Z" fill="#D48CB0"/>
<path d="M50.8188 165.189L52.2835 93.1285C49.4518 86.4888 42.441 75.5527 37.0511 69.6941C33.5975 65.9403 31.2424 63.7498 29.8161 62.8146L28.2632 62.3709C28.5087 62.1604 29.0164 62.2902 29.8161 62.8146L34.4147 64.1285L28.2632 50.9466C35.8794 63.9332 51.6976 89.3205 54.041 86.977C56.3845 84.6336 54.5972 49.7749 47.8895 33.0779C49.3542 35.3237 52.2835 40.2254 52.2835 41.8658C52.2835 43.9163 55.7986 28.391 59.8996 25.4617C56.6188 36.9446 53.5528 43.721 54.041 45.3809L59.8996 91.6639C63.8054 85.2194 72.437 64.5386 73.3744 57.9769C73.3744 66.882 70.4451 72.0376 70.4451 72.9164L82.4552 50.9466L69.2734 78.775L59.8996 96.9366V165.189H50.8188Z" fill="#4B3B3B"/>
<circle cx="31.2314" cy="39.8445" r="2.75571" fill="#DEA9D0"/>
<circle cx="47.7657" cy="22.3916" r="2.75571" fill="#DEA9D0"/>
<circle cx="74.4043" cy="27.903" r="2.75571" fill="#DEA9D0"/>
<circle cx="74.4043" cy="44.4373" r="2.75571" fill="#DEA9D0"/>
<circle cx="91.8572" cy="33.4145" r="2.75571" fill="#DEA9D0"/>
<circle cx="14.6972" cy="56.3788" r="2.75571" fill="#DEA9D0"/>
<circle cx="17.4529" cy="30.6587" r="2.75571" fill="#DEA9D0"/>
<circle cx="94.6129" cy="61.8902" r="2.75571" fill="#DEA9D0"/>
<circle cx="45.01" cy="61.8902" r="2.75571" fill="#DEA9D0"/>
<circle cx="63.3814" cy="64.6459" r="2.75571" fill="#DEA9D0"/>
<g opacity="0.15">
<path d="M72.1108 169.975C80.5696 168.694 88.8876 173.561 91.1305 178.258C96.8978 177.724 110.432 180.206 106.075 195.322C117.289 203.328 118.891 209.691 106.075 224.743C109.599 233.71 114.751 245.831 95.2061 249.354C93.6041 263.445 77.5063 263.124 59.8839 249.354C43.5431 249.674 32.3165 265.686 21.4227 243.589C11.8105 239.106 -2.80995 231.306 3.27778 214.332C-5.37321 201.202 4.25633 184.25 18.6747 182.648C19.9563 172.08 32.8627 170.15 48.5627 174.954C51.1259 165.026 64.1007 161.968 72.1108 169.975Z" fill="#D4889B"/>
<path d="M50.8188 94.9587L52.2835 167.02C49.4518 173.659 42.441 184.595 37.0511 190.454C33.5975 194.208 31.2424 196.398 29.8161 197.333L28.2632 197.777C28.5087 197.988 29.0164 197.858 29.8161 197.333L34.4147 196.02L28.2632 209.201C35.8794 196.215 51.6976 170.828 54.041 173.171C56.3845 175.514 54.5972 210.373 47.8895 227.07C49.3542 224.824 52.2835 219.923 52.2835 218.282C52.2835 216.232 55.7986 231.757 59.8996 234.686C56.6188 223.204 53.5528 216.427 54.041 214.767L59.8996 168.484C63.8054 174.929 72.437 195.61 73.3744 202.171C73.3744 193.266 70.4451 188.11 70.4451 187.232L82.4552 209.201L69.2734 181.373L59.8996 163.211V94.9587H50.8188Z" fill="#4B3B3B"/>
<circle cx="2.75571" cy="2.75571" r="2.75571" transform="matrix(1 0 0 -1 28.4757 223.059)" fill="#DEA9D0"/>
<circle cx="2.75571" cy="2.75571" r="2.75571" transform="matrix(1 0 0 -1 45.01 240.512)" fill="#DEA9D0"/>
<circle cx="2.75571" cy="2.75571" r="2.75571" transform="matrix(1 0 0 -1 71.6486 235.001)" fill="#DEA9D0"/>
<circle cx="2.75571" cy="2.75571" r="2.75571" transform="matrix(1 0 0 -1 71.6486 218.466)" fill="#DEA9D0"/>
<circle cx="2.75571" cy="2.75571" r="2.75571" transform="matrix(1 0 0 -1 89.1014 229.489)" fill="#DEA9D0"/>
<circle cx="2.75571" cy="2.75571" r="2.75571" transform="matrix(1 0 0 -1 11.9414 206.525)" fill="#DEA9D0"/>
<circle cx="2.75571" cy="2.75571" r="2.75571" transform="matrix(1 0 0 -1 14.6971 232.245)" fill="#DEA9D0"/>
<circle cx="2.75571" cy="2.75571" r="2.75571" transform="matrix(1 0 0 -1 91.8571 201.014)" fill="#DEA9D0"/>
<circle cx="2.75571" cy="2.75571" r="2.75571" transform="matrix(1 0 0 -1 42.2543 201.014)" fill="#DEA9D0"/>
<circle cx="2.75571" cy="2.75571" r="2.75571" transform="matrix(1 0 0 -1 60.6257 198.258)" fill="#DEA9D0"/>
</g>
</svg>
