<svg width="117" height="347" viewBox="0 0 117 347" fill="none" xmlns="http://www.w3.org/2000/svg">
<path d="M49.8499 172.143C49.2311 171.833 49.7617 170.845 51.5741 167.469L51.6683 167.294C54.2459 162.493 55.0316 137.147 55.0316 137.147C55.0316 137.147 42.1922 144.524 39.9264 143.768C37.6607 143.011 44.0174 138.408 45.5909 135.255C42.1293 139.354 31.4298 145.281 27.6535 143.768C22.9331 141.876 35.2061 137.147 38.0383 133.363C40.9266 129.505 26.7094 141.876 16.3246 142.822C8.65413 143.52 5.31048 141.876 4.99579 140.93C5.93986 138.093 25.0101 140.173 37.0942 122.013C23.8772 126.743 22.9331 128.634 20.1009 126.743C17.2687 124.851 26.7094 122.959 27.6535 122.013C28.5976 121.068 10.2597 127.66 10.6602 124.851C11.6043 118.23 43.7027 112.555 38.9824 100.259C34.8914 104.042 26.7094 107.353 25.7654 106.88C21.9891 104.988 32.3739 102.151 32.3739 100.259C32.3739 98.3673 12.09 109.447 13.4924 105.934C15.3806 101.205 34.262 97.4215 45.5909 82.288C41.8146 85.4408 34.262 88.909 32.3739 88.909C27.9954 88.909 31.9409 86.4278 34.4491 85.0598C30.6282 86.9962 21.5831 91.3397 20.1009 89.8548C18.2128 87.9631 40.8705 78.5047 48.4231 66.2088C46.5349 68.1005 37.0942 70.9661 36.1501 70.0203C35.2061 69.0744 38.9824 67.1546 39.9264 64.3171C40.8705 61.4795 30.4857 72.8297 25.7654 72.8297C21.045 72.8297 44.6468 57.6962 50.3112 45.4003C46.8496 48.2378 34.8284 52.3995 37.0942 50.1295C39.9264 47.292 51.2553 39.7253 53.1434 30.2669C49.6818 33.1044 44.495 35.8955 47.479 32.1586C51.2553 27.4294 57.8638 13.2418 57.8638 0H58.8079C58.8079 13.2418 67.3045 27.4294 71.0808 32.1586C74.0648 35.8955 66.9898 33.1044 63.5282 30.2669C65.4164 39.7253 76.7452 47.292 78.6334 50.1295C80.4108 52.8007 69.822 48.2378 66.3604 45.4003C72.0248 57.6962 95.6267 72.8297 90.9063 72.8297C86.186 72.8297 75.8012 61.4795 76.7452 64.3171C77.6893 67.1546 82.4097 69.0463 80.5215 70.938C79.5774 71.8839 70.1367 68.1005 68.2486 66.2088C75.8011 78.5047 98.4589 87.9631 96.5707 89.8548C94.6826 91.7464 77.8514 81.5044 80.5215 84.1797C81.4656 85.1256 87.13 87.9632 85.2419 88.909C83.3312 89.8661 74.8571 85.4408 71.0808 82.288C82.4097 97.4215 101.291 101.205 103.179 105.934C104.582 109.447 84.2978 98.3673 84.2978 100.259C84.2978 102.151 94.6825 104.988 91.8503 106.88C90.0939 108.053 81.7803 104.042 77.6893 100.259C72.9689 112.555 105.067 118.23 106.011 124.851C106.412 127.66 90.9063 121.068 89.0182 122.013C87.1301 122.959 99.4029 124.851 96.5707 126.743C93.7385 128.634 92.7944 126.743 79.5774 122.013C91.6616 140.173 110.732 138.093 111.676 140.93C111.361 141.876 108.018 143.52 100.347 142.822C89.9622 141.876 74.8744 130.351 78.6334 133.363C83.3537 137.147 92.7944 142.822 88.0741 144.714C84.2978 146.227 74.5424 139.354 71.0808 135.255C72.6543 138.408 78.0669 143.011 75.8011 143.768C73.5354 144.524 61.6401 137.147 61.6401 137.147C61.6401 137.147 63.5575 163.536 66.8217 167.9C69.9061 172.023 68.8779 171.828 68.2486 172.143H49.8499Z" fill="#261357"/>
<g opacity="0.15" filter="url(#filter0_fn_25_2)">
<path d="M49.8499 169.474C49.2311 169.784 49.7617 170.772 51.5741 174.148L51.6683 174.323C54.2459 179.124 55.0316 204.47 55.0316 204.47C55.0316 204.47 42.1922 197.092 39.9264 197.849C37.6607 198.606 44.0174 203.209 45.5909 206.362C42.1293 202.263 31.4298 196.336 27.6535 197.849C22.9331 199.741 35.2061 204.47 38.0383 208.253C40.9266 212.112 26.7094 199.741 16.3246 198.795C8.65413 198.096 5.31048 199.741 4.99579 200.687C5.93986 203.524 25.0101 201.443 37.0942 219.604C23.8772 214.874 22.9331 212.983 20.1009 214.874C17.2687 216.766 26.7094 218.658 27.6535 219.604C28.5976 220.549 10.2597 213.957 10.6602 216.766C11.6043 223.387 43.7027 229.062 38.9824 241.358C34.8914 237.574 26.7094 234.264 25.7654 234.737C21.9891 236.629 32.3739 239.466 32.3739 241.358C32.3739 243.25 12.09 232.17 13.4924 235.683C15.3806 240.412 34.262 244.195 45.5909 259.329C41.8146 256.176 34.262 252.708 32.3739 252.708C27.9954 252.708 31.9409 255.189 34.4491 256.557C30.6282 254.621 21.5831 250.277 20.1009 251.762C18.2128 253.654 40.8705 263.112 48.4231 275.408C46.5349 273.516 37.0942 270.651 36.1501 271.597C35.2061 272.542 38.9824 274.462 39.9264 277.3C40.8705 280.137 30.4857 268.787 25.7654 268.787C21.045 268.787 44.6468 283.921 50.3112 296.217C46.8496 293.379 34.8284 289.217 37.0942 291.487C39.9264 294.325 51.2553 301.892 53.1434 311.35C49.6818 308.512 44.495 305.721 47.479 309.458C51.2553 314.187 57.8638 328.375 57.8638 341.617H58.8079C58.8079 328.375 67.3045 314.187 71.0808 309.458C74.0648 305.721 66.9898 308.512 63.5282 311.35C65.4164 301.892 76.7452 294.325 78.6334 291.487C80.4108 288.816 69.822 293.379 66.3604 296.217C72.0248 283.921 95.6267 268.787 90.9063 268.787C86.186 268.787 75.8012 280.137 76.7452 277.3C77.6893 274.462 82.4097 272.571 80.5215 270.679C79.5774 269.733 70.1367 273.516 68.2486 275.408C75.8011 263.112 98.4589 253.654 96.5707 251.762C94.6826 249.87 77.8514 260.112 80.5215 257.437C81.4656 256.491 87.13 253.654 85.2419 252.708C83.3312 251.751 74.8571 256.176 71.0808 259.329C82.4097 244.195 101.291 240.412 103.179 235.683C104.582 232.17 84.2978 243.25 84.2978 241.358C84.2978 239.466 94.6825 236.629 91.8503 234.737C90.0939 233.564 81.7803 237.574 77.6893 241.358C72.9689 229.062 105.067 223.387 106.011 216.766C106.412 213.957 90.9063 220.549 89.0182 219.604C87.1301 218.658 99.4029 216.766 96.5707 214.874C93.7385 212.983 92.7944 214.874 79.5774 219.604C91.6616 201.443 110.732 203.524 111.676 200.687C111.361 199.741 108.018 198.096 100.347 198.795C89.9622 199.741 74.8744 211.266 78.6334 208.253C83.3537 204.47 92.7944 198.795 88.0741 196.903C84.2978 195.39 74.5424 202.263 71.0808 206.362C72.6543 203.209 78.0669 198.606 75.8011 197.849C73.5354 197.092 61.6401 204.47 61.6401 204.47C61.6401 204.47 63.5575 178.081 66.8217 173.717C69.9061 169.594 68.8779 169.789 68.2486 169.474H49.8499Z" fill="#261357"/>
</g>
<defs>
<filter id="filter0_fn_25_2" x="-0.00421143" y="164.474" width="116.68" height="182.143" filterUnits="userSpaceOnUse" color-interpolation-filters="sRGB">
<feFlood flood-opacity="0" result="BackgroundImageFix"/>
<feBlend mode="normal" in="SourceGraphic" in2="BackgroundImageFix" result="shape"/>
<feGaussianBlur stdDeviation="2.5" result="effect1_foregroundBlur_25_2"/>
<feTurbulence type="fractalNoise" baseFrequency="0.20000000298023224 0.20000000298023224" stitchTiles="stitch" numOctaves="3" result="noise" seed="6606" />
<feComponentTransfer in="noise" result="coloredNoise1">
<feFuncR type="linear" slope="2" intercept="-0.5" />
<feFuncG type="linear" slope="2" intercept="-0.5" />
<feFuncB type="linear" slope="2" intercept="-0.5" />
<feFuncA type="discrete" tableValues="1 1 1 1 1 1 1 1 1 1 1 1 1 1 1 1 1 1 1 1 1 1 1 1 1 1 1 1 1 1 1 1 1 1 1 1 1 1 1 1 1 1 1 1 1 1 1 1 1 1 1 0 0 0 0 0 0 0 0 0 0 0 0 0 0 0 0 0 0 0 0 0 0 0 0 0 0 0 0 0 0 0 0 0 0 0 0 0 0 0 0 0 0 0 0 0 0 0 0 0 "/>
</feComponentTransfer>
<feComposite operator="in" in2="effect1_foregroundBlur_25_2" in="coloredNoise1" result="noise1Clipped" />
<feComponentTransfer in="noise1Clipped" result="color1">
<feFuncA type="table" tableValues="0 0.15" />
</feComponentTransfer>
<feMerge result="effect2_noise_25_2">
<feMergeNode in="effect1_foregroundBlur_25_2" />
<feMergeNode in="color1" />
</feMerge>
</filter>
</defs>
</svg>
