<svg width="117" height="347" viewBox="0 0 117 347" fill="none" xmlns="http://www.w3.org/2000/svg">
<path d="M49.8541 172.143C49.2353 171.833 49.7659 170.845 51.5783 167.469L51.6725 167.294C54.2501 162.493 55.0358 137.147 55.0358 137.147C55.0358 137.147 42.1964 144.524 39.9306 143.768C37.6649 143.011 44.0216 138.408 45.5951 135.255C42.1335 139.354 31.434 145.281 27.6577 143.768C22.9374 141.876 35.2103 137.147 38.0425 133.363C40.9308 129.505 26.7136 141.876 16.3289 142.822C8.65835 143.52 5.31469 141.876 5 140.93C5.94407 138.093 25.0143 140.173 37.0984 122.013C23.8814 126.743 22.9374 128.634 20.1051 126.743C17.2729 124.851 26.7136 122.959 27.6577 122.013C28.6018 121.068 10.2639 127.66 10.6644 124.851C11.6085 118.23 43.7069 112.555 38.9866 100.259C34.8956 104.042 26.7136 107.353 25.7696 106.88C21.9933 104.988 32.3781 102.151 32.3781 100.259C32.3781 98.3673 12.0942 109.447 13.4966 105.934C15.3848 101.205 34.2662 97.4215 45.5951 82.288C41.8188 85.4408 34.2662 88.909 32.3781 88.909C27.9996 88.909 31.9451 86.4278 34.4533 85.0598C30.6324 86.9962 21.5873 91.3397 20.1051 89.8548C18.217 87.9631 40.8747 78.5047 48.4273 66.2088C46.5391 68.1005 37.0984 70.9661 36.1544 70.0203C35.2103 69.0744 38.9866 67.1546 39.9306 64.3171C40.8747 61.4795 30.4899 72.8297 25.7696 72.8297C21.0492 72.8297 44.651 57.6962 50.3154 45.4003C46.8538 48.2378 34.8327 52.3995 37.0984 50.1295C39.9306 47.292 51.2595 39.7253 53.1477 30.2669C49.6861 33.1044 44.4992 35.8955 47.4832 32.1586C51.2595 27.4294 57.868 13.2418 57.868 0H58.8121C58.8121 13.2418 67.3087 27.4294 71.085 32.1586C74.069 35.8955 66.994 33.1044 63.5324 30.2669C65.4206 39.7253 76.7495 47.292 78.6376 50.1295C80.415 52.8007 69.8262 48.2378 66.3646 45.4003C72.029 57.6962 95.6309 72.8297 90.9105 72.8297C86.1902 72.8297 75.8054 61.4795 76.7495 64.3171C77.6935 67.1546 82.4139 69.0463 80.5257 70.938C79.5816 71.8839 70.1409 68.1005 68.2528 66.2088C75.8053 78.5047 98.4631 87.9631 96.5749 89.8548C94.6868 91.7464 77.8556 81.5044 80.5257 84.1797C81.4698 85.1256 87.1342 87.9632 85.2461 88.909C83.3354 89.8661 74.8613 85.4408 71.085 82.288C82.4139 97.4215 101.295 101.205 103.183 105.934C104.586 109.447 84.302 98.3673 84.302 100.259C84.302 102.151 94.6867 104.988 91.8546 106.88C90.0981 108.053 81.7845 104.042 77.6935 100.259C72.9731 112.555 105.072 118.23 106.016 124.851C106.416 127.66 90.9105 121.068 89.0224 122.013C87.1343 122.959 99.4072 124.851 96.5749 126.743C93.7427 128.634 92.7987 126.743 79.5817 122.013C91.6658 140.173 110.736 138.093 111.68 140.93C111.365 141.876 108.022 143.52 100.351 142.822C89.9664 141.876 74.8786 130.351 78.6376 133.363C83.3579 137.147 92.7986 142.822 88.0783 144.714C84.302 146.227 74.5466 139.354 71.085 135.255C72.6585 138.408 78.0711 143.011 75.8053 143.768C73.5396 144.524 61.6443 137.147 61.6443 137.147C61.6443 137.147 63.5618 163.536 66.826 167.9C69.9103 172.023 68.8822 171.828 68.2528 172.143H49.8541Z" fill="#131857"/>
<g opacity="0.15" filter="url(#filter0_fn_38_8)">
<path d="M49.8541 169.474C49.2353 169.784 49.7659 170.772 51.5783 174.148L51.6725 174.323C54.2501 179.124 55.0358 204.47 55.0358 204.47C55.0358 204.47 42.1964 197.092 39.9306 197.849C37.6649 198.606 44.0216 203.209 45.5951 206.362C42.1335 202.263 31.434 196.336 27.6577 197.849C22.9374 199.741 35.2103 204.47 38.0425 208.253C40.9308 212.112 26.7136 199.741 16.3289 198.795C8.65835 198.096 5.31469 199.741 5 200.687C5.94407 203.524 25.0143 201.443 37.0984 219.604C23.8814 214.874 22.9374 212.983 20.1051 214.874C17.2729 216.766 26.7136 218.658 27.6577 219.604C28.6018 220.549 10.2639 213.957 10.6644 216.766C11.6085 223.387 43.7069 229.062 38.9866 241.358C34.8956 237.574 26.7136 234.264 25.7696 234.737C21.9933 236.629 32.3781 239.466 32.3781 241.358C32.3781 243.25 12.0942 232.17 13.4966 235.683C15.3848 240.412 34.2662 244.195 45.5951 259.329C41.8188 256.176 34.2662 252.708 32.3781 252.708C27.9996 252.708 31.9451 255.189 34.4533 256.557C30.6324 254.621 21.5873 250.277 20.1051 251.762C18.217 253.654 40.8747 263.112 48.4273 275.408C46.5391 273.516 37.0984 270.651 36.1544 271.597C35.2103 272.542 38.9866 274.462 39.9306 277.3C40.8747 280.137 30.4899 268.787 25.7696 268.787C21.0492 268.787 44.651 283.921 50.3154 296.217C46.8538 293.379 34.8327 289.217 37.0984 291.487C39.9306 294.325 51.2595 301.892 53.1477 311.35C49.6861 308.512 44.4992 305.721 47.4832 309.458C51.2595 314.187 57.868 328.375 57.868 341.617H58.8121C58.8121 328.375 67.3087 314.187 71.085 309.458C74.069 305.721 66.994 308.512 63.5324 311.35C65.4206 301.892 76.7495 294.325 78.6376 291.487C80.415 288.816 69.8262 293.379 66.3646 296.217C72.029 283.921 95.6309 268.787 90.9105 268.787C86.1902 268.787 75.8054 280.137 76.7495 277.3C77.6935 274.462 82.4139 272.571 80.5257 270.679C79.5816 269.733 70.1409 273.516 68.2528 275.408C75.8053 263.112 98.4631 253.654 96.5749 251.762C94.6868 249.87 77.8556 260.112 80.5257 257.437C81.4698 256.491 87.1342 253.654 85.2461 252.708C83.3354 251.751 74.8613 256.176 71.085 259.329C82.4139 244.195 101.295 240.412 103.183 235.683C104.586 232.17 84.302 243.25 84.302 241.358C84.302 239.466 94.6867 236.629 91.8546 234.737C90.0981 233.564 81.7845 237.574 77.6935 241.358C72.9731 229.062 105.072 223.387 106.016 216.766C106.416 213.957 90.9105 220.549 89.0224 219.604C87.1343 218.658 99.4072 216.766 96.5749 214.874C93.7427 212.983 92.7987 214.874 79.5817 219.604C91.6658 201.443 110.736 203.524 111.68 200.687C111.365 199.741 108.022 198.096 100.351 198.795C89.9664 199.741 74.8786 211.266 78.6376 208.253C83.3579 204.47 92.7986 198.795 88.0783 196.903C84.302 195.39 74.5466 202.263 71.085 206.362C72.6585 203.209 78.0711 198.606 75.8053 197.849C73.5396 197.092 61.6443 204.47 61.6443 204.47C61.6443 204.47 63.5618 178.081 66.826 173.717C69.9103 169.594 68.8822 169.789 68.2528 169.474H49.8541Z" fill="#131857"/>
</g>
<defs>
<filter id="filter0_fn_38_8" x="0" y="164.474" width="116.68" height="182.143" filterUnits="userSpaceOnUse" color-interpolation-filters="sRGB">
<feFlood flood-opacity="0" result="BackgroundImageFix"/>
<feBlend mode="normal" in="SourceGraphic" in2="BackgroundImageFix" result="shape"/>
<feGaussianBlur stdDeviation="2.5" result="effect1_foregroundBlur_38_8"/>
<feTurbulence type="fractalNoise" baseFrequency="0.20000000298023224 0.20000000298023224" stitchTiles="stitch" numOctaves="3" result="noise" seed="6606" />
<feComponentTransfer in="noise" result="coloredNoise1">
<feFuncR type="linear" slope="2" intercept="-0.5" />
<feFuncG type="linear" slope="2" intercept="-0.5" />
<feFuncB type="linear" slope="2" intercept="-0.5" />
<feFuncA type="discrete" tableValues="1 1 1 1 1 1 1 1 1 1 1 1 1 1 1 1 1 1 1 1 1 1 1 1 1 1 1 1 1 1 1 1 1 1 1 1 1 1 1 1 1 1 1 1 1 1 1 1 1 1 1 0 0 0 0 0 0 0 0 0 0 0 0 0 0 0 0 0 0 0 0 0 0 0 0 0 0 0 0 0 0 0 0 0 0 0 0 0 0 0 0 0 0 0 0 0 0 0 0 0 "/>
</feComponentTransfer>
<feComposite operator="in" in2="effect1_foregroundBlur_38_8" in="coloredNoise1" result="noise1Clipped" />
<feComponentTransfer in="noise1Clipped" result="color1">
<feFuncA type="table" tableValues="0 0.15" />
</feComponentTransfer>
<feMerge result="effect2_noise_38_8">
<feMergeNode in="effect1_foregroundBlur_38_8" />
<feMergeNode in="color1" />
</feMerge>
</filter>
</defs>
</svg>
